<svg xmlns="http://www.w3.org/2000/svg" width="19" height="10" fill="none"><path fill="url(#a)" d="M6.61 3.387 9.987 10l3.302-.003L9.57 3.39l-2.96-.003Z"/><path fill="url(#b)" d="M13.289 9.997 9.987 10l4.877-10h3.21l-4.786 9.997Z"/><path fill="url(#c)" d="m9.987 10 3.302-.003-1.77-3.138L9.988 10Z"/><path fill="url(#d)" d="M0 3.387 3.38 10l3.299-.003L2.96 3.39 0 3.387Z"/><path fill="url(#e)" d="M6.679 9.997 3.38 10 8.257 0h3.207L6.679 9.997Z"/><path fill="url(#f)" d="m3.38 10 3.299-.003-1.77-3.138L3.38 10Z"/><defs><linearGradient id="a" x1="6.712" x2="12.99" y1="3.295" y2="10.263" gradientUnits="userSpaceOnUse"><stop stop-color="#EBA211"/><stop offset=".22" stop-color="#EC9B12"/><stop offset=".53" stop-color="#EF8817"/><stop offset=".91" stop-color="#F4681D"/><stop offset="1" stop-color="#F55F1F"/></linearGradient><linearGradient id="b" x1="18.07" x2="9.987" y1="5.002" y2="5.002" gradientUnits="userSpaceOnUse"><stop stop-color="#FC3"/><stop offset="1" stop-color="#FE991B"/></linearGradient><linearGradient id="c" x1="9.987" x2="13.285" y1="8.431" y2="8.431" gradientUnits="userSpaceOnUse"><stop stop-color="#FF8321"/><stop offset="1" stop-color="#EBA211"/></linearGradient><linearGradient id="d" x1=".105" x2="6.38" y1="3.295" y2="10.266" gradientUnits="userSpaceOnUse"><stop stop-color="#5E7CDD"/><stop offset=".3" stop-color="#5B76D6"/><stop offset=".74" stop-color="#5166C3"/><stop offset="1" stop-color="#4A5AB4"/></linearGradient><linearGradient id="e" x1="11.464" x2="3.38" y1="5.002" y2="5.002" gradientUnits="userSpaceOnUse"><stop stop-color="#5E83FF"/><stop offset=".41" stop-color="#5E7CFB"/><stop offset="1" stop-color="#5F69F1"/></linearGradient><linearGradient id="f" x1="3.38" x2="6.679" y1="8.431" y2="8.431" gradientUnits="userSpaceOnUse"><stop stop-color="#5E7CDD"/><stop offset=".42" stop-color="#5B75DE"/><stop offset="1" stop-color="#5263DF"/></linearGradient></defs></svg>