<svg width="28" height="28" viewBox="0 0 28 28" fill="none" xmlns="http://www.w3.org/2000/svg">
<g clip-path="url(#clip0_2351_19384)">
<path d="M0 6C0 2.68629 2.68629 0 6 0H22C25.3137 0 28 2.68629 28 6V22C28 25.3137 25.3137 28 22 28H6C2.68629 28 0 25.3137 0 22V6Z" fill="#D9D9D9"/>
<path d="M0 6C0 2.68629 2.68629 0 6 0H22C25.3137 0 28 2.68629 28 6V22C28 25.3137 25.3137 28 22 28H6C2.68629 28 0 25.3137 0 22V6Z" fill="url(#paint0_linear_2351_19384)"/>
<path d="M20.9725 15.8409C20.8231 15.9424 20.6487 16.0022 20.4677 16.0142C20.2867 16.0262 20.1058 15.9898 19.944 15.909C19.5641 15.6975 19.3594 15.2017 19.3594 14.526V12.4551C19.3594 11.461 18.9598 10.7537 18.2914 10.5617C17.1618 10.236 16.3182 11.5995 15.9927 12.1124L13.9948 15.2989V11.41C13.9726 10.5131 13.6766 9.97591 13.1168 9.81549C12.7468 9.70854 12.1918 9.75229 11.6517 10.5641L7.18488 17.6298C6.59055 16.5093 6.28239 15.2629 6.28708 13.9985C6.28708 9.74014 9.74015 6.27655 13.9948 6.27655C18.2495 6.27655 21.7149 9.74014 21.7149 13.9985V14.0204C21.7149 14.0204 21.7149 14.035 21.7149 14.0423C21.7568 14.8663 21.4855 15.5225 20.975 15.8409H20.9725ZM23.439 14.001V13.9597C23.4044 8.77033 19.1818 4.56055 13.9948 4.56055C8.80782 4.56055 4.56055 8.79464 4.56055 13.9985C4.56055 19.2024 8.79302 23.439 13.9948 23.439C16.3806 23.4389 18.6756 22.5377 20.4077 20.9209C20.5758 20.7648 20.6747 20.5497 20.683 20.3222C20.6913 20.0947 20.6084 19.8732 20.4521 19.7056C20.3773 19.624 20.2868 19.5579 20.186 19.5109C20.0852 19.464 19.9759 19.4371 19.8645 19.4319C19.7531 19.4267 19.6418 19.4433 19.5369 19.4807C19.432 19.518 19.3356 19.5755 19.2534 19.6497C18.5076 20.3467 17.6267 20.8881 16.6634 21.2413C15.7 21.5945 14.6742 21.7523 13.6475 21.705C12.6208 21.6578 11.6143 21.4066 10.6886 20.9666C9.76282 20.5265 8.93685 19.9066 8.26026 19.1441L12.2806 12.776V15.7145C12.2806 17.1267 12.8356 17.5837 13.3017 17.7173C13.7679 17.851 14.4807 17.7587 15.2281 16.5628L17.4479 13.0214C17.517 12.9072 17.5835 12.81 17.6427 12.7249V14.526C17.6427 15.8458 18.1804 16.9007 19.1226 17.4208C19.5511 17.6487 20.0338 17.7588 20.5203 17.7396C21.0068 17.7204 21.479 17.5725 21.8876 17.3114C22.9235 16.6479 23.4883 15.4472 23.4291 14.001H23.439Z" fill="white"/>
</g>
<defs>
<linearGradient id="paint0_linear_2351_19384" x1="28" y1="-0.000488162" x2="8.3448e-07" y2="27.9995" gradientUnits="userSpaceOnUse">
<stop stop-color="#367AFF"/>
<stop offset="1" stop-color="#0734FF"/>
</linearGradient>
<clipPath id="clip0_2351_19384">
<rect width="28" height="28" fill="white" transform="translate(0 0.000488281)"/>
</clipPath>
</defs>
</svg>