<svg width="28" height="28" viewBox="0 0 28 28" fill="none" xmlns="http://www.w3.org/2000/svg">
<path d="M23.7186 4.8153C21.8823 3.95612 19.9397 3.34565 17.9421 3C17.6933 3.44986 17.4025 4.05492 17.202 4.53628C15.0482 4.21242 12.9142 4.21242 10.8 4.53628C10.5996 4.05503 10.3023 3.44986 10.0512 3C8.05162 3.34581 6.10734 3.95784 4.27021 4.81978C0.614461 10.3442 -0.376586 15.7312 0.118883 21.0421C2.54362 22.8528 4.89343 23.9527 7.20365 24.6725C7.77779 23.883 8.28533 23.0471 8.72101 22.1734C7.89153 21.8576 7.0919 21.4685 6.3316 21.0106C6.53168 20.8623 6.72705 20.7077 6.91741 20.5471C11.5245 22.702 16.5304 22.702 21.0826 20.5471C21.2738 20.7066 21.4691 20.8612 21.6683 21.0106C20.9067 21.4697 20.1056 21.8596 19.2745 22.1757C19.7126 23.0529 20.2193 23.8896 20.7918 24.6747C23.1042 23.955 25.4562 22.8551 27.881 21.0421C28.4624 14.8856 26.8879 9.54795 23.7186 4.8153ZM9.34871 17.776C7.96566 17.776 6.83144 16.4848 6.83144 14.9126C6.83144 13.3403 7.94149 12.0469 9.34871 12.0469C10.756 12.0469 11.8901 13.338 11.866 14.9126C11.8682 16.4848 10.756 17.776 9.34871 17.776ZM18.6512 17.776C17.2681 17.776 16.134 16.4848 16.134 14.9126C16.134 13.3403 17.2439 12.0469 18.6512 12.0469C20.0585 12.0469 21.1926 13.338 21.1684 14.9126C21.1684 16.4848 20.0585 17.776 18.6512 17.776Z" fill="#5865F2"/>
</svg>
