<svg width="28" height="28" viewBox="0 0 28 28" fill="none" xmlns="http://www.w3.org/2000/svg">
<g clip-path="url(#clip0_449_11465)">
<path d="M27.9716 14.0431C27.9716 6.34674 21.7254 0.100586 14.029 0.100586C6.33259 0.100586 0.0864258 6.34674 0.0864258 14.0431C0.0864258 21.0073 5.18386 26.7796 11.8608 27.8134V18.0637H8.29976V14.0431H11.8608V10.9703C11.8608 7.4811 13.9285 5.54264 17.1162 5.54264C18.6382 5.54264 20.2177 5.82982 20.2177 5.82982V9.23289H18.4659C16.7285 9.23289 16.1828 10.3242 16.1828 11.4155V14.0288H20.0598L19.4423 18.0493H16.1828V27.799C22.8741 26.7796 27.9716 21.0073 27.9716 14.0431Z" fill="#1877F2"/>
<path d="M19.4565 18.0777L20.074 14.0572H16.197V11.4438C16.197 10.3382 16.757 9.26125 18.4801 9.26125H20.2319V5.84382C20.2319 5.84382 18.6524 5.55664 17.1304 5.55664C13.9427 5.55664 11.875 7.4951 11.875 10.9843V14.0572H8.31396V18.0777H11.875V27.8274C12.5786 27.9423 13.3109 27.9997 14.0432 27.9997C14.7755 27.9997 15.5078 27.9423 16.2114 27.8274V18.0777H19.4565Z" fill="white"/>
</g>
<defs>
<clipPath id="clip0_449_11465">
<rect width="28" height="28" fill="white"/>
</clipPath>
</defs>
</svg>
