<svg width="28" height="28" viewBox="0 0 28 28" fill="none" xmlns="http://www.w3.org/2000/svg">
<path d="M14.0072 0.212097C8.24983 0.212097 6.56602 0.218037 6.23871 0.245188C5.0572 0.3434 4.32198 0.52943 3.52101 0.928218C2.90374 1.23473 2.41692 1.59004 1.93647 2.0881C1.06147 2.9964 0.531162 4.11385 0.339193 5.44216C0.245859 6.087 0.218708 6.21852 0.213193 9.51234C0.211071 10.6103 0.213193 12.0552 0.213193 13.9934C0.213193 19.7461 0.219556 21.4282 0.247132 21.7549C0.342587 22.9046 0.52289 23.6279 0.904708 24.4191C1.63441 25.9337 3.02804 27.0707 4.66986 27.4949C5.23835 27.6413 5.86623 27.7219 6.67229 27.7601C7.0138 27.7749 10.4947 27.7855 13.9777 27.7855C17.4608 27.7855 20.9438 27.7813 21.2768 27.7643C22.2102 27.7204 22.7521 27.6476 23.3514 27.4928C25.0038 27.0664 26.372 25.9464 27.1165 24.4107C27.4909 23.6385 27.6808 22.8876 27.7667 21.798C27.7854 21.5604 27.7932 17.7725 27.7932 13.9898C27.7932 10.2064 27.7847 6.42555 27.7661 6.18797C27.6791 5.0807 27.4892 4.33616 27.1028 3.54919C26.7856 2.90497 26.4335 2.42388 25.9223 1.93198C25.01 1.06058 23.8942 0.530279 22.5646 0.338521C21.9204 0.2454 21.7921 0.217824 18.4957 0.212097H14.0072Z" fill="url(#paint0_radial_449_11451)"/>
<path d="M14.0072 0.212097C8.24983 0.212097 6.56602 0.218037 6.23871 0.245188C5.0572 0.3434 4.32198 0.52943 3.52101 0.928218C2.90374 1.23473 2.41692 1.59004 1.93647 2.0881C1.06147 2.9964 0.531162 4.11385 0.339193 5.44216C0.245859 6.087 0.218708 6.21852 0.213193 9.51234C0.211071 10.6103 0.213193 12.0552 0.213193 13.9934C0.213193 19.7461 0.219556 21.4282 0.247132 21.7549C0.342587 22.9046 0.52289 23.6279 0.904708 24.4191C1.63441 25.9337 3.02804 27.0707 4.66986 27.4949C5.23835 27.6413 5.86623 27.7219 6.67229 27.7601C7.0138 27.7749 10.4947 27.7855 13.9777 27.7855C17.4608 27.7855 20.9438 27.7813 21.2768 27.7643C22.2102 27.7204 22.7521 27.6476 23.3514 27.4928C25.0038 27.0664 26.372 25.9464 27.1165 24.4107C27.4909 23.6385 27.6808 22.8876 27.7667 21.798C27.7854 21.5604 27.7932 17.7725 27.7932 13.9898C27.7932 10.2064 27.7847 6.42555 27.7661 6.18797C27.6791 5.0807 27.4892 4.33616 27.1028 3.54919C26.7856 2.90497 26.4335 2.42388 25.9223 1.93198C25.01 1.06058 23.8942 0.530279 22.5646 0.338521C21.9204 0.2454 21.7921 0.217824 18.4957 0.212097H14.0072Z" fill="url(#paint1_radial_449_11451)"/>
<path d="M14.0008 3.81818C11.2356 3.81818 10.8886 3.83027 9.80254 3.87969C8.7186 3.92933 7.97872 4.10093 7.33133 4.35272C6.66166 4.61278 6.0936 4.96066 5.52766 5.52681C4.9613 6.09275 4.61342 6.66081 4.35251 7.33027C4.10009 7.97787 3.92827 8.71796 3.87948 9.80148C3.8309 10.8875 3.81818 11.2348 3.81818 14C3.81818 16.7652 3.83048 17.1112 3.87969 18.1972C3.92954 19.2812 4.10115 20.0211 4.35272 20.6684C4.61299 21.3381 4.96087 21.9062 5.52703 22.4721C6.09275 23.0385 6.66081 23.3872 7.33006 23.6473C7.97787 23.8991 8.71797 24.0707 9.80169 24.1203C10.8878 24.1697 11.2346 24.1818 13.9996 24.1818C16.765 24.1818 17.111 24.1697 18.197 24.1203C19.281 24.0707 20.0217 23.8991 20.6695 23.6473C21.339 23.3872 21.9062 23.0385 22.4719 22.4721C23.0383 21.9062 23.3862 21.3381 23.6471 20.6687C23.8974 20.0211 24.0692 19.281 24.1201 18.1974C24.1689 17.1114 24.1816 16.7652 24.1816 14C24.1816 11.2348 24.1689 10.8878 24.1201 9.80169C24.0692 8.71775 23.8974 7.97787 23.6471 7.33048C23.3862 6.66081 23.0383 6.09275 22.4719 5.52681C21.9055 4.96045 21.3392 4.61257 20.6689 4.35272C20.0198 4.10093 19.2795 3.92933 18.1955 3.87969C17.1095 3.83027 16.7637 3.81818 13.9977 3.81818H14.0008ZM13.0875 5.65302C13.3585 5.6526 13.661 5.65302 14.0008 5.65302C16.7194 5.65302 17.0416 5.66278 18.1152 5.71157C19.1079 5.75696 19.6467 5.92284 20.0056 6.06221C20.4807 6.24675 20.8195 6.46736 21.1756 6.82372C21.532 7.18008 21.7526 7.51948 21.9376 7.99463C22.0769 8.35311 22.243 8.8919 22.2882 9.88463C22.337 10.958 22.3476 11.2804 22.3476 13.9977C22.3476 16.7149 22.337 17.0374 22.2882 18.1107C22.2428 19.1034 22.0769 19.6422 21.9376 20.0007C21.753 20.4758 21.532 20.8142 21.1756 21.1703C20.8193 21.5267 20.4809 21.7473 20.0056 21.9318C19.6471 22.0718 19.1079 22.2373 18.1152 22.2827C17.0418 22.3315 16.7194 22.3421 14.0008 22.3421C11.2821 22.3421 10.9599 22.3315 9.88654 22.2827C8.89381 22.2369 8.35503 22.071 7.99591 21.9316C7.52075 21.7471 7.18136 21.5265 6.825 21.1701C6.46863 20.8138 6.24803 20.4752 6.06306 19.9998C5.92369 19.6414 5.7576 19.1026 5.71242 18.1098C5.66363 17.0365 5.65387 16.7141 5.65387 13.9951C5.65387 11.2761 5.66363 10.9554 5.71242 9.88209C5.75781 8.88936 5.92369 8.35057 6.06306 7.99166C6.2476 7.51651 6.46863 7.17712 6.825 6.82075C7.18136 6.46439 7.52075 6.24378 7.99591 6.05881C8.35481 5.91881 8.89381 5.75336 9.88654 5.70775C10.8258 5.66533 11.1898 5.6526 13.0875 5.65048V5.65302ZM19.4358 7.34363C18.7613 7.34363 18.214 7.89027 18.214 8.56502C18.214 9.23957 18.7613 9.78684 19.4358 9.78684C20.1104 9.78684 20.6576 9.23957 20.6576 8.56502C20.6576 7.89048 20.1104 7.34321 19.4358 7.34321V7.34363ZM14.0008 8.77121C11.1132 8.77121 8.77206 11.1124 8.77206 14C8.77206 16.8876 11.1132 19.2277 14.0008 19.2277C16.8885 19.2277 19.2288 16.8876 19.2288 14C19.2288 11.1124 16.8882 8.77121 14.0006 8.77121H14.0008ZM14.0008 10.6061C15.8752 10.6061 17.3948 12.1255 17.3948 14C17.3948 15.8743 15.8752 17.3939 14.0008 17.3939C12.1263 17.3939 10.6069 15.8743 10.6069 14C10.6069 12.1255 12.1263 10.6061 14.0008 10.6061V10.6061Z" fill="white"/>
<defs>
<radialGradient id="paint0_radial_449_11451" cx="0" cy="0" r="1" gradientUnits="userSpaceOnUse" gradientTransform="translate(7.53848 29.9092) rotate(-90) scale(27.3273 25.4235)">
<stop stop-color="#FFDD55"/>
<stop offset="0.1" stop-color="#FFDD55"/>
<stop offset="0.5" stop-color="#FF543E"/>
<stop offset="1" stop-color="#C837AB"/>
</radialGradient>
<radialGradient id="paint1_radial_449_11451" cx="0" cy="0" r="1" gradientUnits="userSpaceOnUse" gradientTransform="translate(-4.40771 2.19844) rotate(78.6776) scale(12.2155 50.3657)">
<stop stop-color="#3771C8"/>
<stop offset="0.128" stop-color="#3771C8"/>
<stop offset="1" stop-color="#6600FF" stop-opacity="0"/>
</radialGradient>
</defs>
</svg>
