<svg width="28" height="28" viewBox="0 0 28 28" fill="none" xmlns="http://www.w3.org/2000/svg">
<g clip-path="url(#clip0_672_8548)">
<path d="M23.8572 23.8582H19.7085V17.361C19.7085 15.8117 19.6808 13.8172 17.5507 13.8172C15.3899 13.8172 15.0593 15.5053 15.0593 17.2482V23.8578H10.9107V10.4969H14.8934V12.3229H14.9491C15.3477 11.6413 15.9237 11.0807 16.6157 10.7006C17.3077 10.3205 18.0898 10.1353 18.8788 10.1646C23.0837 10.1646 23.8589 12.9304 23.8589 16.5287L23.8572 23.8582ZM6.22944 8.67071C4.89977 8.67093 3.82166 7.59315 3.82144 6.26348C3.82122 4.93381 4.89889 3.8557 6.22857 3.85548C7.55824 3.85515 8.63635 4.93293 8.63657 6.2626C8.63668 6.90114 8.38314 7.51357 7.93172 7.96517C7.4803 8.41678 6.86798 8.67057 6.22944 8.67071ZM8.30385 23.8583H4.15077V10.4969H8.30374V23.8582L8.30385 23.8583ZM25.9255 0.00252614H2.06608C0.938425 -0.0101614 0.0136592 0.893167 -0.00012207 2.02082V25.9797C0.0132217 27.1079 0.937878 28.0121 2.06597 28.0003H25.9255C27.056 28.0143 27.9842 27.1101 27.9999 25.9797V2.01896C27.9838 0.88912 27.0554 -0.0140989 25.9255 0.000666769" fill="#0A66C2"/>
</g>
<defs>
<clipPath id="clip0_672_8548">
<rect width="28" height="28" fill="white" transform="translate(0 0.000488281)"/>
</clipPath>
</defs>
</svg>
