<svg width="180" height="35" fill="none" xmlns="http://www.w3.org/2000/svg"><g clip-path="url(#a)"><path d="M107.251 13.14c.15-.424.242-.665.311-.918.838-2.757 1.7-5.456 2.504-8.202a.916.916 0 0 1 1.022-.804h.092c.409.026.82.026 1.229 0-.069.276-.115.483-.172.701-1.264 4.066-2.562 8.121-3.791 12.199a.922.922 0 0 1-.775.726.92.92 0 0 1-.374-.025 1.022 1.022 0 0 1-1.321-.713c-.815-2.814-1.757-5.582-2.642-8.385-.068-.23-.16-.448-.298-.919-.15.402-.253.62-.322.85-.919 2.814-1.838 5.629-2.653 8.454-.253.839-.781.667-1.333.701a.921.921 0 0 1-1.148-.62c-1.183-4.09-2.493-8.121-3.78-12.13 0-.172-.103-.368-.183-.678a16.726 16.726 0 0 1 1.975 0 .987.987 0 0 1 .448.62 1501.01 1501.01 0 0 1 2.596 8.328l.288.92c.16-.403.252-.621.333-.85.919-2.758 1.78-5.583 2.642-8.386a.781.781 0 0 1 .884-.666c1.539.069 1.149-.219 1.62 1.148.85 2.62 1.677 5.261 2.515 7.88.092.15.184.368.333.77ZM123.907 16.989c-.529 0-1.218-.08-1.838-.207a5.515 5.515 0 0 1-4.893-5.307 14.054 14.054 0 0 1 .115-3.607 5.177 5.177 0 0 1 4.732-4.594 14.932 14.932 0 0 1 4.181 0 5.078 5.078 0 0 1 4.595 4.468 14.16 14.16 0 0 1 0 4.388c-.448 2.826-2.297 4.4-5.307 4.733-.448.057-.942.08-1.585.126Zm-4.721-7.19c0 .62 0 1.045.115 1.481a3.673 3.673 0 0 0 3.239 3.446c1.1.147 2.216.12 3.308-.08a3.445 3.445 0 0 0 2.757-2.688 7.603 7.603 0 0 0 0-3.802 3.445 3.445 0 0 0-2.872-2.86 11.786 11.786 0 0 0-3.584 0 3.33 3.33 0 0 0-2.687 2.653c-.122.584-.21 1.175-.265 1.769l-.011.08ZM168.085 16.748V3.262c2.757.104 5.445-.252 8.121.38a4.331 4.331 0 0 1 3.446 3.595c.361 1.762.361 3.579 0 5.341a4.596 4.596 0 0 1-3.676 3.825c-2.619.609-5.203.287-7.891.345Zm2.125-6.731v4.146c0 .299 0 .598.436.575 1.402-.07 2.815 0 4.205-.207a2.988 2.988 0 0 0 2.756-2.964c.104-1.08.104-2.17 0-3.25a2.754 2.754 0 0 0-2.573-2.757c-1.447-.207-2.94-.173-4.41-.242-.425 0-.437.253-.437.575v4.135l.023-.011ZM138.748 11.82v4.87h-2.056V3.331h.069c2.412 0 4.847-.08 7.259.08 2.413.161 3.446 1.299 3.676 3.447.264 2.435-.62 3.928-2.757 4.72l-.298.161 2.906 5.032h-2.079a.987.987 0 0 1-.54-.494 127.625 127.625 0 0 1-2.217-3.837.988.988 0 0 0-1.045-.586c-.908-.023-1.861-.034-2.918-.034Zm0-6.513v4.491c1.734 0 3.446.092 5.112 0 1.148-.08 1.688-.919 1.665-2.297-.023-1.379-.551-2.068-1.78-2.148a42.857 42.857 0 0 0-4.94-.058l-.057.012ZM162.766 14.76v1.93h-9.051V3.331h2.067v10.637a.649.649 0 0 0-.006.344.65.65 0 0 0 .466.474c.113.03.232.029.345-.002h6.145l.034-.023ZM86.874 16.69h-2.297V6.088l-1.965.839-.919-2.16a6.627 6.627 0 0 1 5.17-1.436v13.36h.01ZM115.453 31.52a1.034 1.034 0 0 1-1.367-.506v-.092c-.678-1.31-1.436-2.584-2.16-3.87a1.367 1.367 0 0 0-.528-.564v5.054h-1v-7.236c.919-.287 1.149-.241 1.54.574l1.987 3.55c.118.231.302.423.528.55v-4.755h1.046v7.283l-.046.011ZM95.248 31.52a1.068 1.068 0 0 1-1.413-.517v-.092a39.303 39.303 0 0 0-2.642-4.388v5.03h-1.046v-7.282a1.148 1.148 0 0 1 1.54.552v.114c.574 1.15 1.275 2.298 1.93 3.447.12.23.302.421.528.55v-4.709h1.103V31.52ZM87.104 27.855c-.028.566-.086 1.13-.173 1.689a2.872 2.872 0 0 1-5.582-.104 13.268 13.268 0 0 1 0-3.239 2.907 2.907 0 0 1 5.56 0c.103.529.126 1.114.195 1.654Zm-1.15 0c-.025-.485-.08-.968-.16-1.447a1.472 1.472 0 0 0-1.654-1.264 1.4 1.4 0 0 0-1.528 1.218v.08a13.241 13.241 0 0 0 0 2.872 1.447 1.447 0 0 0 1.494 1.39h.16a1.505 1.505 0 0 0 1.597-1.378c.08-.448.08-.92.126-1.448l-.034-.023ZM123.057 30.6v.92h-4.158v-7.271h4.135v.919h-2.412c-.528 0-.735.114-.724.677 0 1.677-.172 1.367 1.367 1.39h1.597v1.01h-2.297a.54.54 0 0 0-.69.656c0 1.677 0 1.677 1.677 1.677h1.471l.034.023ZM98.694 31.496v-7.27h1.057v6.352h2.963l.069.918h-4.09ZM106.734 31.623H105.735v-7.375h.999v7.375Z" fill="#222"/><path d="m23.16 11.868 11.833 23.171 11.569-.011-13.03-23.149-10.372-.011Z" fill="url(#b)"/><path d="m46.562 35.028-11.568.011L52.082 0H63.33L46.562 35.028Z" fill="url(#c)"/><path d="m34.994 35.04 11.568-.012-6.198-10.994-5.37 11.005Z" fill="url(#d)"/><path d="m0 11.868 11.845 23.171 11.557-.011-13.03-23.149L0 11.868Z" fill="url(#e)"/><path d="m23.402 35.028-11.557.011L28.933 0h11.235L23.402 35.028Z" fill="url(#f)"/><path d="m11.845 35.04 11.557-.012-6.198-10.994-5.36 11.005Z" fill="url(#g)"/></g><defs><linearGradient id="b" x1="23.517" y1="11.546" x2="45.516" y2="35.959" gradientUnits="userSpaceOnUse"><stop stop-color="#EBA211"/><stop offset=".22" stop-color="#EC9B12"/><stop offset=".53" stop-color="#EF8817"/><stop offset=".91" stop-color="#F4681D"/><stop offset="1" stop-color="#F55F1F"/></linearGradient><linearGradient id="c" x1="63.317" y1="17.526" x2="34.994" y2="17.526" gradientUnits="userSpaceOnUse"><stop stop-color="#FC3"/><stop offset="1" stop-color="#FE991B"/></linearGradient><linearGradient id="d" x1="34.994" y1="29.543" x2="46.551" y2="29.543" gradientUnits="userSpaceOnUse"><stop stop-color="#FF8321"/><stop offset="1" stop-color="#EBA211"/></linearGradient><linearGradient id="e" x1=".368" y1="11.546" x2="22.355" y2="35.971" gradientUnits="userSpaceOnUse"><stop stop-color="#5E7CDD"/><stop offset=".3" stop-color="#5B76D6"/><stop offset=".74" stop-color="#5166C3"/><stop offset="1" stop-color="#4A5AB4"/></linearGradient><linearGradient id="f" x1="40.168" y1="17.526" x2="11.845" y2="17.526" gradientUnits="userSpaceOnUse"><stop stop-color="#5E83FF"/><stop offset=".41" stop-color="#5E7CFB"/><stop offset="1" stop-color="#5F69F1"/></linearGradient><linearGradient id="g" x1="11.845" y1="29.543" x2="23.402" y2="29.543" gradientUnits="userSpaceOnUse"><stop stop-color="#5E7CDD"/><stop offset=".42" stop-color="#5B75DE"/><stop offset="1" stop-color="#5263DF"/></linearGradient><clipPath id="a"><path fill="#fff" d="M0 0h179.951v35H0z"/></clipPath></defs></svg>