<svg width="28" height="28" viewBox="0 0 28 28" fill="none" xmlns="http://www.w3.org/2000/svg">
<g clip-path="url(#clip0_449_11472)">
<path d="M14 0C6.26795 0 0 6.26795 0 14C0 21.732 6.26795 28 14 28C21.732 28 28 21.732 28 14C28 6.26795 21.732 0 14 0Z" fill="#40B3E0"/>
<path d="M20.8122 8.05326L18.3116 20.6608C18.3116 20.6608 17.9619 21.5351 17.0002 21.1155L11.2298 16.6915L9.1315 15.6774L5.59935 14.4882C5.59935 14.4882 5.05729 14.2959 5.00479 13.8763C4.95229 13.4566 5.61685 13.2293 5.61685 13.2293L19.658 7.7212C19.658 7.7212 20.8121 7.21414 20.8121 8.05348" fill="white"/>
<path d="M10.7863 20.5191C10.7863 20.5191 10.6179 20.5033 10.4079 19.8388C10.1982 19.1743 9.1315 15.6772 9.1315 15.6772L17.6122 10.2915C17.6122 10.2915 18.1019 9.99427 18.0844 10.2915C18.0844 10.2915 18.1718 10.344 17.9094 10.5888C17.6472 10.8337 11.2474 16.5865 11.2474 16.5865" fill="#D2E5F1"/>
<path d="M13.4423 18.3876L11.16 20.4685C11.16 20.4685 10.9815 20.6039 10.7863 20.5191L11.2234 16.6537" fill="#B5CFE4"/>
</g>
<defs>
<clipPath id="clip0_449_11472">
<rect width="28" height="28" fill="white"/>
</clipPath>
</defs>
</svg>
