<svg width="28" height="28" viewBox="0 0 28 28" fill="none" xmlns="http://www.w3.org/2000/svg">
<g clip-path="url(#clip0_2356_19689)">
<path d="M0 5C0 2.23858 2.23858 0 5 0H23C25.7614 0 28 2.23858 28 5V23C28 25.7614 25.7614 28 23 28H5C2.23858 28 0 25.7614 0 23V5Z" fill="black"/>
<path d="M5.07568 21.7801L5.14566 21.9812C5.13691 21.9594 5.11067 21.8894 5.07568 21.7801ZM7.91418 17.1921C8.04101 16.1031 8.46963 15.4951 9.27438 14.8697C10.429 14.0256 11.8679 14.5023 11.8679 14.5023V11.6638C12.2178 11.6551 12.5677 11.677 12.9132 11.7294V15.3814C12.9132 15.3814 11.4743 14.9047 10.3197 15.7488C9.51493 16.3742 9.08631 16.9822 8.95948 18.0712C8.9551 18.6617 9.06007 19.4358 9.54992 20.1006C9.42746 20.035 9.30499 19.9606 9.17816 19.8775C8.10662 19.1253 7.9098 17.9925 7.91418 17.1921ZM18.8658 6.41546C18.0741 5.51012 17.7724 4.59166 17.663 3.94873H18.6602C18.6602 3.94873 18.4634 5.63696 19.9111 7.29457L19.9329 7.31643C19.5393 7.06276 19.1807 6.75661 18.8658 6.41546ZM23.6724 8.98716V12.5648C23.6724 12.5648 22.3997 12.5123 21.455 12.263C20.1385 11.9131 19.2944 11.3752 19.2944 11.3752C19.2944 11.3752 18.7083 10.9903 18.6646 10.964V18.3555C18.6646 18.7666 18.5552 19.7944 18.2272 20.6517C17.7986 21.7713 17.1338 22.5105 17.0113 22.6592C17.0113 22.6592 16.2022 23.6564 14.7808 24.3255C13.4993 24.9291 12.3709 24.916 12.0341 24.9291C12.0341 24.9291 10.0879 25.0078 8.33405 23.8226C7.95354 23.5601 7.59927 23.2627 7.27562 22.9347L7.28437 22.9435C9.0382 24.1331 10.9845 24.05 10.9845 24.05C11.3212 24.0369 12.4496 24.05 13.7311 23.4464C15.1526 22.7773 15.9617 21.7801 15.9617 21.7801C16.0841 21.6314 16.7489 20.8922 17.1775 19.7726C17.5056 18.9153 17.6149 17.8875 17.6149 17.4764V10.0893C17.663 10.1156 18.2447 10.5004 18.2447 10.5004C18.2447 10.5004 19.0888 11.0384 20.4053 11.3883C21.35 11.6376 22.6227 11.6901 22.6227 11.6901V8.88657C23.0601 8.98716 23.4319 9.01341 23.6724 8.98716Z" fill="#EE1D52"/>
<path d="M22.6229 8.8822V11.6857C22.6229 11.6857 21.3502 11.6332 20.4055 11.3839C19.089 11.034 18.2449 10.4961 18.2449 10.4961C18.2449 10.4961 17.6589 10.1112 17.6151 10.0849V17.4764C17.6151 17.8875 17.5058 18.9153 17.1778 19.7726C16.7491 20.8922 16.0843 21.6314 15.9619 21.7801C15.9619 21.7801 15.1528 22.7773 13.7313 23.4464C12.4499 24.05 11.3215 24.0369 10.9847 24.05C10.9847 24.05 9.03841 24.1287 7.28458 22.9435L7.27584 22.9347C7.09214 22.7466 6.9172 22.5498 6.75537 22.3443C6.19555 21.6314 5.8544 20.7916 5.76693 20.5511V20.5467C5.62697 20.1312 5.33831 19.1253 5.37768 18.1587C5.44765 16.4486 6.02498 15.3945 6.17805 15.1321C6.58043 14.4149 7.10964 13.7719 7.7307 13.234C8.28177 12.7704 8.9072 12.3986 9.57637 12.1406C10.3024 11.8344 11.0809 11.6726 11.8682 11.6595V14.498C11.8682 14.498 10.4292 14.0212 9.27459 14.8653C8.46984 15.4908 8.04122 16.0987 7.91439 17.1877C7.91001 17.9881 8.10683 19.1209 9.18274 19.8775C9.30958 19.9606 9.43204 20.035 9.5545 20.1006C9.74257 20.3543 9.97 20.5773 10.2324 20.761C11.2865 21.4564 12.1656 21.5045 13.294 21.054C14.0462 20.7523 14.6104 20.0743 14.8729 19.3177C15.039 18.8454 15.0347 18.373 15.0347 17.8832V3.94873H17.6589C17.7682 4.59166 18.0656 5.51012 18.8616 6.41546C19.1809 6.75661 19.5395 7.06276 19.9288 7.31643C20.0425 7.44327 20.6329 8.05558 21.3939 8.43609C21.7832 8.6329 22.1987 8.7816 22.6229 8.8822Z" fill="white"/>
<path d="M4.72217 19.6851L4.78777 19.8731C4.77903 19.8513 4.75278 19.7857 4.72217 19.6851Z" fill="#69C9D0"/>
<path d="M9.57604 12.1455C8.9025 12.4035 8.28144 12.7753 7.73036 13.2389C7.10493 13.7769 6.58009 14.4242 6.17772 15.1414C6.02464 15.4039 5.44732 16.4535 5.37734 18.168C5.33798 19.1389 5.63101 20.1405 5.7666 20.556V20.5604C5.85407 20.7966 6.19521 21.6407 6.75504 22.3536C6.91686 22.5591 7.09181 22.7559 7.2755 22.944C6.68069 22.5329 6.15585 22.0387 5.70536 21.4745C5.14991 20.7703 4.80877 19.9349 4.7213 19.69V19.6813C4.58134 19.2658 4.2883 18.2598 4.33204 17.2889C4.40202 15.5788 4.97934 14.5247 5.13242 14.2623C5.53479 13.5451 6.05963 12.8978 6.68506 12.3598C7.23614 11.8962 7.86157 11.5244 8.53074 11.2664C8.95061 11.0914 9.38797 10.9646 9.83408 10.8815C10.5076 10.7634 11.1943 10.7547 11.8722 10.8509V11.6644C11.0806 11.6775 10.3021 11.8393 9.57604 12.1455Z" fill="#69C9D0"/>
<path d="M17.6629 3.94893H15.0388V17.8833C15.0388 18.3732 15.0388 18.8455 14.8769 19.3179C14.6101 20.0702 14.0459 20.7525 13.2981 21.0542C12.1697 21.5091 11.2862 21.4566 10.2365 20.7612C9.97409 20.5819 9.74666 20.3588 9.55859 20.1052C10.4552 20.5819 11.2556 20.5731 12.2484 20.1751C13.0006 19.8734 13.5648 19.1911 13.8273 18.4388C13.9935 17.9664 13.9891 17.4941 13.9891 17.0042V3.06982H17.6148C17.6105 3.06982 17.5711 3.41534 17.6629 3.94893ZM22.6227 8.10826V8.88239C22.1984 8.7818 21.7829 8.63309 21.3937 8.43628C20.637 8.06015 20.0466 7.44347 19.9285 7.31663C20.0641 7.4041 20.1997 7.48283 20.344 7.55718C21.2712 8.01641 22.1765 8.15637 22.6227 8.10826Z" fill="#69C9D0"/>
</g>
<defs>
<clipPath id="clip0_2356_19689">
<rect width="28" height="28" fill="white"/>
</clipPath>
</defs>
</svg>