<svg width="28" height="28" viewBox="0 0 28 28" fill="none" xmlns="http://www.w3.org/2000/svg">
<path d="M28 5.45398C26.9497 5.91035 25.8384 6.21102 24.7013 6.34648C25.8963 5.6467 26.795 4.53498 27.2288 3.21981C26.099 3.88049 24.8649 4.34406 23.5795 4.59065C23.0382 4.02337 22.3872 3.57209 21.6661 3.26423C20.945 2.95637 20.1688 2.79837 19.3848 2.79981C16.2103 2.79981 13.6413 5.33148 13.6413 8.45232C13.639 8.88641 13.6887 9.31922 13.7894 9.74148C11.5131 9.63477 9.28406 9.05407 7.24499 8.03655C5.20592 7.01902 3.4017 5.58707 1.94775 3.83231C1.43767 4.69222 1.16791 5.67334 1.16667 6.67315C1.16667 8.63315 2.18925 10.3656 3.73333 11.3807C2.81851 11.3589 1.92243 11.1168 1.12117 10.6748V10.7448C1.12117 13.4865 3.1045 15.7673 5.7295 16.2865C5.23587 16.4181 4.7272 16.4847 4.21633 16.4848C3.85384 16.4855 3.49217 16.4503 3.13658 16.3798C3.86633 18.6257 5.99025 20.259 8.50617 20.3057C6.4618 21.8812 3.95186 22.7328 1.37083 22.7265C0.912694 22.7258 0.45498 22.6985 0 22.6448C2.62569 24.3214 5.67784 25.2083 8.79317 25.1998C19.3725 25.1998 25.1522 16.584 25.1522 9.11148C25.1522 8.86648 25.1458 8.62148 25.1341 8.38232C26.2559 7.58435 27.2264 6.59271 28 5.45398Z" fill="#1B9CEB"/>
</svg>
