<svg width="28" height="28" viewBox="0 0 28 28" fill="none" xmlns="http://www.w3.org/2000/svg">
<g clip-path="url(#clip0_449_11481)">
<path d="M27.8162 8.13695C27.8162 5.67601 26.006 3.69633 23.7693 3.69633C20.7396 3.55469 17.6498 3.5 14.4921 3.5H13.5078C10.3578 3.5 7.26244 3.55469 4.23275 3.69687C2.0015 3.69687 0.191342 5.6875 0.191342 8.14844C0.0546234 10.0948 -0.00334542 12.0416 -6.41693e-05 13.9885C-0.00553292 15.9354 0.0564463 17.8841 0.185873 19.8346C0.185873 22.2955 1.99603 24.2916 4.22728 24.2916C7.4101 24.4393 10.6749 24.5049 13.9945 24.4994C17.3195 24.5104 20.5752 24.4411 23.7617 24.2916C25.9984 24.2916 27.8085 22.2955 27.8085 19.8346C27.9398 17.8823 27.9999 15.9354 27.9945 13.983C28.0069 12.0362 27.9474 10.0875 27.8162 8.13695ZM11.3203 19.3534V8.60726L19.2499 13.9776L11.3203 19.3534Z" fill="#F60203"/>
</g>
<defs>
<clipPath id="clip0_449_11481">
<rect width="28" height="28" fill="white"/>
</clipPath>
</defs>
</svg>
