<svg width="201" height="80" viewBox="0 0 201 80" fill="none" xmlns="http://www.w3.org/2000/svg">
<rect x="134.5" y="14" width="52" height="52" rx="26" fill="#7310ED"/>
<path d="M155.872 33.8449L146.63 34.8694C146.297 34.9097 146.002 35.1325 145.892 35.4711C145.781 35.8097 145.892 36.1623 146.137 36.3851C148.884 38.892 153.012 42.6463 153.012 42.6463C153.009 42.6463 151.879 48.1075 151.128 51.7512C151.092 51.9162 151.105 52.0879 151.165 52.2456C151.226 52.4033 151.33 52.5402 151.467 52.6394C151.603 52.7387 151.765 52.7962 151.934 52.8048C152.103 52.8134 152.27 52.7729 152.416 52.6881C155.651 50.8495 160.496 48.0847 160.496 48.0847L168.573 52.6898C168.868 52.8512 169.236 52.8477 169.522 52.6389C169.658 52.5397 169.763 52.4034 169.824 52.2463C169.884 52.0892 169.898 51.9179 169.864 51.753L167.985 42.6463L174.861 36.3904C174.985 36.2771 175.074 36.1304 175.118 35.9677C175.161 35.805 175.156 35.6333 175.104 35.4732C175.053 35.3131 174.956 35.1713 174.825 35.0648C174.695 34.9583 174.537 34.8917 174.369 34.8729C170.671 34.4589 165.126 33.8449 165.126 33.8449L161.296 25.3715C161.227 25.2182 161.115 25.0882 160.973 24.9971C160.832 24.9059 160.667 24.8574 160.499 24.8574C160.331 24.8574 160.166 24.9059 160.025 24.9971C159.883 25.0882 159.771 25.2182 159.702 25.3715L155.872 33.8449Z" fill="white"/>
<rect x="14.5" y="14" width="52" height="52" rx="26" fill="#1068ED"/>
<path d="M27.1177 40C27.1177 32.6091 33.1092 26.6177 40.5 26.6177C47.8909 26.6177 53.8824 32.6091 53.8824 40C53.8824 47.3909 47.8909 53.3824 40.5 53.3824C38.2365 53.3824 36.1011 52.8194 34.2294 51.8252L28.9453 53.3279C28.6997 53.3975 28.44 53.4003 28.193 53.336C27.946 53.2717 27.7206 53.1426 27.5402 52.962C27.3597 52.7815 27.2307 52.556 27.1665 52.309C27.1024 52.0619 27.1053 51.8022 27.175 51.5566L28.6777 46.2735C27.6507 44.342 27.115 42.1875 27.1177 40ZM34.7647 37.1324C34.7647 37.3859 34.8655 37.629 35.0447 37.8083C35.224 37.9876 35.4671 38.0883 35.7206 38.0883H45.2794C45.533 38.0883 45.7761 37.9876 45.9554 37.8083C46.1346 37.629 46.2353 37.3859 46.2353 37.1324C46.2353 36.8789 46.1346 36.6357 45.9554 36.4565C45.7761 36.2772 45.533 36.1765 45.2794 36.1765H35.7206C35.4671 36.1765 35.224 36.2772 35.0447 36.4565C34.8655 36.6357 34.7647 36.8789 34.7647 37.1324ZM35.7206 41.9118C35.4671 41.9118 35.224 42.0125 35.0447 42.1918C34.8655 42.371 34.7647 42.6142 34.7647 42.8677C34.7647 43.1212 34.8655 43.3643 35.0447 43.5436C35.224 43.7228 35.4671 43.8236 35.7206 43.8236H41.4559C41.7094 43.8236 41.9526 43.7228 42.1318 43.5436C42.3111 43.3643 42.4118 43.1212 42.4118 42.8677C42.4118 42.6142 42.3111 42.371 42.1318 42.1918C41.9526 42.0125 41.7094 41.9118 41.4559 41.9118H35.7206Z" fill="white"/>
<rect x="63.5" y="3" width="74" height="74" rx="37" fill="#FE6817"/>
<rect x="63.5" y="3" width="74" height="74" rx="37" stroke="white" stroke-width="6"/>
<path d="M108.619 43.1043C107.473 46.6383 104.512 48.9307 100.787 48.9307C96.0108 48.9307 92.5723 45.2056 92.5723 40.0479C92.5723 34.8901 96.0108 31.1651 100.787 31.1651C104.321 31.1651 107.377 33.2664 108.523 36.5139H121.895C120.367 25.9118 112.057 18.8438 100.882 18.8438C96.4884 18.8438 92.5723 19.8944 89.3249 21.7092V32.2157H80.251C79.3914 34.6036 78.9138 37.1825 78.9138 39.9524C78.9138 52.2737 88.0832 61.1565 100.882 61.1565C112.057 61.1565 120.558 53.8974 122.086 43.1043H108.619Z" fill="url(#paint0_linear_15_3003)"/>
<path d="M108.619 43.1043C107.473 46.6383 104.512 48.9307 100.787 48.9307C96.0108 48.9307 92.5723 45.2056 92.5723 40.0479C92.5723 34.8901 96.0108 31.1651 100.787 31.1651C104.321 31.1651 107.377 33.2664 108.523 36.5139H121.895C120.367 25.9118 112.057 18.8438 100.882 18.8438C96.4884 18.8438 92.5723 19.8944 89.3249 21.7092V32.2157H80.251C79.3914 34.6036 78.9138 37.1825 78.9138 39.9524C78.9138 52.2737 88.0832 61.1565 100.882 61.1565C112.057 61.1565 120.558 53.8974 122.086 43.1043H108.619Z" fill="white"/>
<defs>
<linearGradient id="paint0_linear_15_3003" x1="79.3383" y1="40.0698" x2="517.294" y2="38.6525" gradientUnits="userSpaceOnUse">
<stop stop-color="#FD6C17"/>
<stop offset="0.677" stop-color="#FD4013"/>
<stop offset="0.7994" stop-color="#FD3B13"/>
<stop offset="0.9496" stop-color="#FC2C11"/>
<stop offset="1" stop-color="#FC2511"/>
</linearGradient>
</defs>
</svg>
